<svg xmlns="http://www.w3.org/2000/svg" xmlns:xlink="http://www.w3.org/1999/xlink" version="1.1" x="0px" y="0px"
     viewBox="0 0 64 64" style="enable-background:new 0 0 64 64;max-width:100%" xml:space="preserve"
     height="100%"><g style="" fill="#f98250"><path d="M37,29h-8.913L30,6c0-2.757-2.243-5-5-5s-5,2.243-4.997,5.083L21.913,29H13c-3.925,0-7.586,3.156-7.994,6.885L1.878,63   h46.244l-3.128-27.108C44.586,32.156,40.925,29,37,29z M22,6c0-1.654,1.346-3,3-3s3,1.346,3.003,2.917L26.08,29h-2.16L22,6z    M4.122,61l2.872-24.892C7.286,33.435,10.149,31,13,31h24c2.851,0,5.714,2.435,6.006,5.115L45.878,61H4.122z" style="" fill="#f98250"></path><path
        d="M36,33H14c-2.833,0-4.654,1.783-4.99,4.858l-3,21l1.979,0.283l3.004-21.033C11.299,35.322,12.856,35,14,35h22   c1.144,0,2.701,0.322,3.01,3.142l3,21l1.979-0.283l-2.996-20.967C40.654,34.783,38.833,33,36,33z"
        style="" fill="#f98250"></path><path
        d="M37.834,1L40,15.077V18c0,1.654,1.346,3,3,3h5.021L47,47c0,2.542,1.458,4,4,4s4-1.458,3.999-4.039L53.979,21H59   c1.654,0,3-1.346,3-3v-2.923L64.166,1H37.834z M53,47c0,1.439-0.561,2-2,2s-2-0.561-2.001-1.961L50.022,21h1.956L53,47z M59,19H43   c-0.551,0-1-0.449-1-1v-2h18.007L60,18C60,18.551,59.551,19,59,19z M60.142,14H50V7h-2v7h-6.153L40.166,3h17.729l-0.89,8.9   l1.99,0.199l0.91-9.1h1.929L60.142,14z"
        style="" fill="#f98250"></path><rect x="48" y="4" width="2" height="2" style=""
                                                  fill="#f98250"></rect><rect x="52" y="10" width="2"
                                                                                   height="2" style=""
                                                                                   fill="#f98250"></rect><rect
        x="13" y="37" width="2" height="2" style="" fill="#f98250"></rect><rect x="33" y="57" width="2"
                                                                                     height="2" style=""
                                                                                     fill="#f98250"></rect><rect
        x="37" y="57" width="2" height="2" style="" fill="#f98250"></rect></g></svg>