<svg xmlns="http://www.w3.org/2000/svg" xmlns:xlink="http://www.w3.org/1999/xlink" version="1.0" x="0px" y="0px"
     viewBox="0 0 100 100" style="enable-background:new 0 0 100 100;max-width:100%" xml:space="preserve"
     height="100%"><path d="M86.7,53.2c-2.8,2.8-6.5,4.3-10.5,4.3c-1.1,0-2.3-0.1-3.4-0.4c-0.5-0.1-1.1,0-1.4,0.4L43.2,85.7h-7.3v-7.3l5.8-5.8l1.8,1.8  c0.3,0.3,0.7,0.4,1.1,0.4c0.4,0,0.8-0.1,1.1-0.4c0.6-0.6,0.6-1.6,0-2.2l-1.8-1.8l3.9-3.9l2.9,2.9c0.3,0.3,0.7,0.5,1.1,0.5  c0.4,0,0.8-0.1,1.1-0.5c0.6-0.6,0.6-1.5,0-2.1l-2.9-2.9l3.6-3.6l1.8,1.8c0.3,0.3,0.7,0.4,1.1,0.4c0.4,0,0.8-0.1,1.1-0.4  c0.6-0.6,0.6-1.6,0-2.2l-1.8-1.8l7.2-7.2c0.5-0.5,0.6-1.2,0.3-1.8C60,43.9,61.1,37,65.7,32.3c2.8-2.8,6.5-4.4,10.5-4.4  c4,0,7.7,1.6,10.5,4.4c2.8,2.8,4.3,6.5,4.3,10.4S89.5,50.4,86.7,53.2 M55.6,27.8L22.5,60.9L9.6,48L42.8,15l5.6,5.6  c-0.5,0.5-1,0.9-1.5,1.5c-0.6,0.6-0.6,1.6,0,2.2c0.6,0.6,1.6,0.6,2.2,0c0.5-0.5,1-1,1.5-1.5L55.6,27.8L55.6,27.8z M89.5,30.9  C91,26.3,88,20,82.2,15.8c-7.4-5.3-19.2-7-31.5,2.8l-6.9-6.9c-0.6-0.6-1.6-0.6-2.2,0L6.4,46.9c-0.3,0.3-0.5,0.7-0.5,1.1  c0,0.4,0.2,0.8,0.5,1.1l15,15c0.3,0.3,0.7,0.5,1.1,0.5s0.8-0.2,1.1-0.5l35.3-35.2c0.6-0.6,0.6-1.6,0-2.2l-5.9-5.9  c10.8-8.5,21.1-7.1,27.5-2.5c4,2.9,6.5,7,6.4,10.2c-3.1-2.3-6.8-3.5-10.7-3.5c-4.8,0-9.2,1.8-12.6,5.2c-2.8,2.8-4.5,6.3-5,10.1  c-0.5,3.4,0,6.8,1.4,9.9L33.3,76.7c-0.3,0.3-0.5,0.7-0.5,1.1v9.4c0,0.8,0.7,1.5,1.5,1.5h9.4c0.4,0,0.8-0.1,1.1-0.4l28-28  c1.1,0.2,2.2,0.3,3.2,0.3l0,0c4.8,0,9.3-1.8,12.6-5.2c3.4-3.4,5.2-7.9,5.2-12.6C94.1,38.3,92.4,34.2,89.5,30.9" style="" fill="#f98250"></path>
    <path d="M62.9,9.7c-0.9-0.9-2.3-0.9-3.2,0c-0.9,0.9-0.9,2.3,0,3.2l6.8,6.8c0.9,0.9,2.4,0.9,3.3,0c0.9-0.9,0.9-2.4,0-3.2L62.9,9.7  L62.9,9.7z"
          style="" fill="#f98250"></path></svg>