<svg xmlns="http://www.w3.org/2000/svg" xmlns:xlink="http://www.w3.org/1999/xlink" version="1.1" x="0px" y="0px"
     viewBox="0 0 48 48" enable-background="new 0 0 48 48" xml:space="preserve" style="max-width:100%"
     height="100%"><g style="" fill="#f98250"><ellipse cx="15.156" cy="18.195" rx="1.878" ry="2.13" style="" fill="#f98250"></ellipse><path
        fill="none" stroke="#f98250" stroke-width="2" stroke-linecap="round" stroke-linejoin="round"
        stroke-miterlimit="10"
        d="   M41.633,23.808c0-8.605-9.097-15.582-20.314-15.582c-0.841,0-1.656,0.061-2.462,0.137C14.967,3.507,7.851,4.734,7.851,4.734   c1.585,1.588,3.214,4.8,3.104,8.222c-0.114,3.557-2.902,6.439-6.485,6.439c-0.862,0-1.679-0.175-2.426-0.476   C1.377,20.458,1,22.096,1,23.808c0,1.129,0.169,2.228,0.468,3.288c4.461,0.709,7.878,4.482,7.878,9.069   c0,0.07-0.02,0.131-0.02,0.198c0.006,0.006,0.011,0.006,0.02,0.006v7.035h4.83V38.35c2.23,0.651,4.62,1.039,7.143,1.039   c2.692,0,5.259-0.412,7.612-1.143v5.158h4.832v-7.301C38.547,33.251,41.633,28.813,41.633,23.808z"
        style=""></path><path fill="none" stroke="#f98250" stroke-width="2" stroke-linecap="round"
                              stroke-linejoin="round" stroke-miterlimit="10"
                              d="   M47,17.083c0,0-1.588,3.419-5.367,4.102" style=""></path><line fill="none"
                                                                                                  stroke="#f98250"
                                                                                                  stroke-width="2"
                                                                                                  stroke-linecap="round"
                                                                                                  stroke-linejoin="round"
                                                                                                  stroke-miterlimit="10"
                                                                                                  x1="23.965"
                                                                                                  y1="17.684"
                                                                                                  x2="23.965"
                                                                                                  y2="25.527"
                                                                                                  style=""></line><polyline
        fill="none" stroke="#f98250" stroke-width="2" stroke-linecap="round" stroke-linejoin="round"
        stroke-miterlimit="10" points="   19.938,24.42 23.965,27.922 27.712,24.42  "
        style=""></polyline></g></svg>