<svg xmlns="http://www.w3.org/2000/svg" xmlns:xlink="http://www.w3.org/1999/xlink" version="1.1" x="0px" y="0px"
     viewBox="-4 -7 100 100" enable-background="new -4 -7 100 100" xml:space="preserve" style="max-width:100%"
     height="100%"><g style="" fill="#f98250"><path d="M5.314,57.564l14.335-2.356c-0.082,0.963,0.08,1.941,0.464,2.827l-14.34,2.357L5.314,57.564z M31.164,57.376l10.373,6.151   c-0.673,0.681-1.182,1.524-1.463,2.467L29.7,59.842C30.374,59.162,30.883,58.318,31.164,57.376z M48.299,62.381l7.72-9.184   c0.573,0.789,1.299,1.413,2.184,1.845l-7.714,9.179C49.919,63.438,49.171,62.806,48.299,62.381z M62.689,44.173l7.364-11.365   c0.691,0.719,1.452,1.233,2.402,1.557L65.092,45.73C64.396,45.01,63.643,44.5,62.689,44.173z M77.278,23.675l7.111-7.432   c0.969-1.016,3.035,0.961,2.063,1.975l-7.11,7.432C78.827,24.832,78.119,24.155,77.278,23.675z" style="" fill="#f98250"></path><path
        d="M4.562,37.635l15.869-13.074c0.419,0.878,1.04,1.629,1.82,2.208L6.379,39.845L4.562,37.635z M30.667,25.272l12.245,13.349   c-0.851,0.464-1.577,1.129-2.112,1.938L28.556,27.211C29.407,26.746,30.133,26.081,30.667,25.272z M49.068,38.956l6.483-5.689   c0.437,0.843,1.101,1.612,1.884,2.153l-6.478,5.685C50.514,40.242,49.864,39.508,49.068,38.956z M65.081,34.594l7.386,11.454   c-0.951,0.323-1.711,0.836-2.406,1.555l-7.384-11.449C63.651,35.825,64.387,35.316,65.081,34.594z M79.148,48.194l5.66-2.232   c1.352-0.537,2.323,2.163,1.049,2.667L80.2,50.861C80.073,49.875,79.7,48.964,79.148,48.194z"
        style="" fill="#f98250"></path><polygon
        points="5.471,0 10.685,10.427 6.908,10.427 6.908,79.349 81.316,79.349 81.316,75.572 91.743,80.785 81.316,86    81.316,82.222 5.471,82.222 4.035,82.222 4.035,80.785 4.035,10.427 0.257,10.427  "
        style="" fill="#f98250"></polygon><circle cx="25.75" cy="22.031" r="3.975" style=""
                                                       fill="#f98250"></circle><circle cx="60.785"
                                                                                            cy="30.576"
                                                                                            r="3.975" style=""
                                                                                            fill="#f98250"></circle><circle
        cx="45.719" cy="43.801" r="3.975" style="" fill="#f98250"></circle><circle cx="45.719" cy="67.675"
                                                                                        r="3.975" style=""
                                                                                        fill="#f98250"></circle><circle
        cx="25.518" cy="55.695" r="3.975" style="" fill="#f98250"></circle><circle cx="60.785" cy="49.748"
                                                                                        r="3.975" style=""
                                                                                        fill="#f98250"></circle><circle
        cx="74.36" cy="28.791" r="3.975" style="" fill="#f98250"></circle><circle cx="74.36" cy="51.626"
                                                                                       r="3.975" style=""
                                                                                       fill="#f98250"></circle></g></svg>