<svg xmlns="http://www.w3.org/2000/svg" xmlns:xlink="http://www.w3.org/1999/xlink" version="1.1" x="0px" y="0px"
     viewBox="0 0 64 64" enable-background="new 0 0 64 64" xml:space="preserve" style="max-width:100%"
     height="100%"><g style="" fill="#f98250"><g style="" fill="#f98250"><g style="" fill="#f98250"><g style="" fill="#f98250"><g style="" fill="#f98250"><path d="M20.999,64c-2.136,0-4.145-0.832-5.656-2.344c-3.119-3.119-3.119-8.194,0-11.313c1.512-1.512,3.521-2.344,5.656-2.344       c2.137,0,4.146,0.832,5.657,2.344c3.119,3.119,3.119,8.194,0,11.313C25.145,63.168,23.136,64,20.999,64z M20.999,49.999       c-1.602,0-3.108,0.624-4.242,1.758c-2.339,2.34-2.339,6.146,0,8.485C17.891,61.376,19.397,62,20.999,62       c1.603,0,3.109-0.624,4.243-1.758c2.339-2.34,2.339-6.146,0-8.485C24.108,50.623,22.602,49.999,20.999,49.999z" style="" fill="#f98250"></path></g><g
        style="" fill="#f98250"><path d="M21,59.999c-1.07,0-2.074-0.416-2.829-1.171S17,57.069,17,55.999c0-1.069,0.416-2.073,1.171-2.828       c1.508-1.51,4.146-1.511,5.657,0c1.559,1.56,1.559,4.098,0,5.657C23.073,59.583,22.069,59.999,21,59.999z M21,54.001       c-0.536,0-1.038,0.207-1.415,0.584S19,55.464,19,55.999c0,0.536,0.208,1.038,0.585,1.415c0.753,0.753,2.074,0.755,2.829,0       c0.779-0.78,0.779-2.049,0-2.829C22.037,54.208,21.535,54.001,21,54.001z" style="" fill="#f98250"></path></g><g
        style="" fill="#f98250"><path d="M23.35,50.406c-0.256,0-0.512-0.098-0.707-0.293c-0.391-0.391-0.391-1.023,0-1.414l24.229-24.227       c0.391-0.391,1.023-0.391,1.414,0s0.391,1.023,0,1.414L24.057,50.113C23.861,50.309,23.605,50.406,23.35,50.406z" style="" fill="#f98250"></path></g><g
        style="" fill="#f98250"><path d="M27.593,54.648c-0.256,0-0.512-0.098-0.707-0.293c-0.391-0.391-0.391-1.023,0-1.414l19.985-19.984       c0.391-0.391,1.023-0.391,1.414,0s0.391,1.023,0,1.414L28.3,54.355C28.104,54.551,27.849,54.648,27.593,54.648z" style="" fill="#f98250"></path></g><g
        style="" fill="#f98250"><path d="M47.578,34.664c-0.256,0-0.512-0.098-0.707-0.293c-0.391-0.391-0.391-1.023,0-1.414       c0.945-0.945,1.467-2.201,1.467-3.535s-0.521-2.59-1.467-3.535c-0.391-0.391-0.391-1.023,0-1.414s1.023-0.391,1.414,0       c1.323,1.322,2.053,3.08,2.053,4.949s-0.729,3.627-2.053,4.949C48.09,34.566,47.834,34.664,47.578,34.664z" style="" fill="#f98250"></path></g></g><g
        style="" fill="#f98250"><g style="" fill="#f98250"><path d="M42.999,63.999c-2.137,0-4.146-0.832-5.657-2.344c-3.119-3.12-3.119-8.195,0-11.313       c1.511-1.512,3.521-2.345,5.657-2.345s4.146,0.833,5.657,2.345c3.119,3.118,3.119,8.193,0,11.313       C47.145,63.167,45.136,63.999,42.999,63.999z M42.999,49.997c-1.603,0-3.109,0.625-4.243,1.759       c-2.339,2.339-2.339,6.146,0,8.485c1.134,1.134,2.641,1.758,4.243,1.758s3.109-0.624,4.243-1.758       c2.339-2.34,2.339-6.146,0-8.485C46.108,50.622,44.602,49.997,42.999,49.997z" style="" fill="#f98250"></path></g>
    <g style="" fill="#f98250"><path d="M42.999,59.997c-1.069,0-2.074-0.416-2.829-1.171s-1.171-1.759-1.171-2.828s0.416-2.073,1.171-2.828       c1.51-1.51,4.149-1.51,5.657,0c1.56,1.56,1.56,4.097,0,5.656C45.073,59.581,44.068,59.997,42.999,59.997z M42.999,53.999       c-0.535,0-1.038,0.208-1.415,0.585s-0.585,0.879-0.585,1.414s0.208,1.037,0.585,1.414c0.754,0.754,2.075,0.754,2.829,0       c0.779-0.779,0.779-2.049,0-2.828C44.036,54.207,43.534,53.999,42.999,53.999z" style="" fill="#f98250"></path></g>
    <g style="" fill="#f98250"><path d="M31.996,41.756c-0.256,0-0.512-0.098-0.707-0.293l-4.752-4.754c-0.391-0.391-0.391-1.023,0-1.414s1.023-0.391,1.414,0       l4.752,4.754c0.391,0.391,0.391,1.023,0,1.414C32.508,41.658,32.252,41.756,31.996,41.756z" style="" fill="#f98250"></path></g>
    <g style="" fill="#f98250"><path d="M40.648,50.405c-0.256,0-0.512-0.098-0.707-0.293l-4.408-4.407c-0.391-0.391-0.391-1.023,0-1.414s1.023-0.391,1.414,0       l4.408,4.407c0.391,0.391,0.391,1.023,0,1.414C41.16,50.308,40.904,50.405,40.648,50.405z" style="" fill="#f98250"></path></g>
    <g style="" fill="#f98250"><path d="M27.758,46.001c-0.256,0-0.512-0.098-0.707-0.293l-8.998-9.002c-0.391-0.391-0.391-1.023,0-1.414s1.023-0.391,1.414,0       l8.998,9.002c0.391,0.391,0.391,1.023,0,1.414C28.27,45.903,28.014,46.001,27.758,46.001z" style="" fill="#f98250"></path></g>
    <g style="" fill="#f98250"><path d="M36.406,54.647c-0.256,0-0.512-0.098-0.707-0.293l-4.406-4.405c-0.391-0.391-0.391-1.023,0-1.414s1.023-0.391,1.414,0       l4.406,4.405c0.391,0.391,0.391,1.023,0,1.414C36.918,54.55,36.662,54.647,36.406,54.647z" style="" fill="#f98250"></path></g></g></g><g
        style="" fill="#f98250"><path d="M55,37h-9.758c-0.553,0-1-0.447-1-1s0.447-1,1-1H55c0.553,0,1,0.447,1,1S55.553,37,55,37z" style="" fill="#f98250"></path></g><g
        style="" fill="#f98250"><path d="M36.757,37H9c-0.553,0-1-0.447-1-1s0.447-1,1-1h27.757c0.553,0,1,0.447,1,1S37.31,37,36.757,37z" style="" fill="#f98250"></path></g><g
        style="" fill="#f98250"><path d="M9,37c-2.757,0-5-2.243-5-5c0-0.553,0.447-1,1-1s1,0.447,1,1c0,1.654,1.346,3,3,3c0.553,0,1,0.447,1,1S9.553,37,9,37z" style="" fill="#f98250"></path></g><g
        style="" fill="#f98250"><path d="M55,37c-0.553,0-1-0.447-1-1s0.447-1,1-1c1.654,0,3-1.346,3-3c0-0.553,0.447-1,1-1s1,0.447,1,1     C60,34.757,57.757,37,55,37z" style="" fill="#f98250"></path></g><g
        style="" fill="#f98250"><path d="M5,6C4.447,6,4,5.553,4,5c0-2.757,2.243-5,5-5c0.553,0,1,0.447,1,1S9.553,2,9,2C7.346,2,6,3.346,6,5C6,5.553,5.553,6,5,6     z" style="" fill="#f98250"></path></g><g
        style="" fill="#f98250"><path d="M59,6c-0.553,0-1-0.447-1-1c0-1.654-1.346-3-3-3c-0.553,0-1-0.447-1-1s0.447-1,1-1c2.757,0,5,2.243,5,5     C60,5.553,59.553,6,59,6z" style="" fill="#f98250"></path></g><g
        style="" fill="#f98250"><path d="M5,33c-0.553,0-1-0.447-1-1V5c0-0.553,0.447-1,1-1s1,0.447,1,1v27C6,32.553,5.553,33,5,33z" style="" fill="#f98250"></path></g><g
        style="" fill="#f98250"><path d="M59,33c-0.553,0-1-0.447-1-1V5c0-0.553,0.447-1,1-1s1,0.447,1,1v27C60,32.553,59.553,33,59,33z" style="" fill="#f98250"></path></g><g
        style="" fill="#f98250"><path d="M55,2H9C8.447,2,8,1.553,8,1s0.447-1,1-1h46c0.553,0,1,0.447,1,1S55.553,2,55,2z" style="" fill="#f98250"></path></g><g
        style="" fill="#f98250"><path d="M59,8H5C4.447,8,4,7.553,4,7s0.447-1,1-1h54c0.553,0,1,0.447,1,1S59.553,8,59,8z" style="" fill="#f98250"></path></g><g
        style="" fill="#f98250"><path d="M59,15H5c-0.553,0-1-0.447-1-1s0.447-1,1-1h54c0.553,0,1,0.447,1,1S59.553,15,59,15z" style="" fill="#f98250"></path></g><g
        style="" fill="#f98250"><path d="M16,26h-3c-0.553,0-1-0.447-1-1s0.447-1,1-1h3c0.553,0,1,0.447,1,1S16.553,26,16,26z" style="" fill="#f98250"></path></g><g
        style="" fill="#f98250"><path d="M32,26H20c-0.553,0-1-0.447-1-1s0.447-1,1-1h12c0.553,0,1,0.447,1,1S32.553,26,32,26z" style="" fill="#f98250"></path></g></g></g></svg>