<svg xmlns="http://www.w3.org/2000/svg" xmlns:xlink="http://www.w3.org/1999/xlink" version="1.1" x="0px" y="0px"
     viewBox="0 0 100 100" style="enable-background:new 0 0 100 100;max-width:100%" xml:space="preserve"
     height="30px"><path d="M87.938,22.663h-8.017V21.6c0-2.932-2.204-5.334-5.037-5.701c-0.245-0.113-0.516-0.181-0.804-0.181H29.136  c-0.037,0-0.071,0.009-0.108,0.011c-3.97,0.105-7.228,3.085-7.771,6.934h-0.856h-8.339H9.239v2.823v2.937v2.823h2.823h8.339h0.687  v47.259c0,3.185,2.591,5.775,5.775,5.775h34.69c3.185,0,5.775-2.591,5.775-5.775V63.096h6.818c3.185,0,5.775-2.591,5.775-5.775  v-2.567V31.247h8.017h2.823v-2.823v-2.937v-2.823H87.938z M20.401,28.424h-8.339v-2.937h8.339V28.424z M25.019,23.793  c0-2.329,1.895-4.224,4.224-4.224h34.459c-0.225,0.67-0.319,1.383-0.263,2.113v33.072c0,0.134,0.014,0.265,0.04,0.391v6.828h-38.54  v-37.66C24.985,24.147,25.019,23.974,25.019,23.793z M24.938,67.106v-1.765h38.54v1.765H24.938z M63.478,67.881v1.31h-38.54v-1.31  H63.478z M61.553,80.431h-34.69c-1.062,0-1.925-0.864-1.925-1.925v-8.539h38.54v8.539C63.478,79.568,62.615,80.431,61.553,80.431z   M67.672,20.252c0.333-0.367,0.822-0.577,1.341-0.577c0.213,0,0.414-0.043,0.605-0.107h3.923c0.191,0.064,0.392,0.107,0.605,0.107  c1.062,0,1.925,0.864,1.925,1.925v1.063H68.04h-0.752V21.6c0-0.061-0.003-0.121-0.009-0.182  C67.228,20.868,67.464,20.481,67.672,20.252z M76.071,43.844h-8.743V31.247h0.711h8.032V43.844z M67.328,48.978v-1.765h8.743v1.765  H67.328z M76.071,49.753v1.31h-8.743v-1.31H76.071z M76.071,57.321c0,1.062-0.864,1.925-1.925,1.925h-6.818v-7.407h8.743v2.916  V57.321z M87.938,28.424H68.04v-2.937h19.898V28.424z" style="" fill="#f98250"></path></svg>