<svg xmlns="http://www.w3.org/2000/svg" xmlns:xlink="http://www.w3.org/1999/xlink" version="1.1" x="0px" y="0px"
     viewBox="0 0 100 100" enable-background="new 0 0 100 100" xml:space="preserve" style="max-width:100%"
     height="100%"><g display="none" style="" fill="#f98250"><rect x="-209.878" y="-344.9" display="inline" fill="#f98250" width="1376.931" height="568.472" style=""></rect></g>
    <g style="" fill="#f98250"><path d="M57.657,29.949V19.898c0-3.145-2.558-5.702-5.703-5.702c-1.533,0-2.965,0.598-4.026,1.676   c-0.098,0.098-0.17,0.212-0.259,0.315c-1.032-1.217-2.557-1.992-4.26-1.992c-1.512,0-2.927,0.602-3.985,1.692   c-1.056,1.088-1.638,2.513-1.638,4.011v10.048h-7.761v9.871h7.761v2.803c-0.878-0.553-1.914-0.878-3.026-0.878   c-2.063,0-3.868,1.105-4.869,2.75c-1.001-1.646-2.807-2.75-4.87-2.75c-3.144,0-5.702,2.558-5.702,5.702v14.408   c0,0.188,0.01,0.374,0.028,0.558c-0.012,0.139-0.031,0.276-0.031,0.419v12.481c0,11.063,9,20.063,20.063,20.063h10.249   c11.056,0,20.051-9,20.051-20.063V62.829c0-0.17-0.015-0.336-0.033-0.5c0.014-0.157,0.033-0.312,0.033-0.474V47.45   c0-3.145-2.558-5.703-5.703-5.703c-1.532,0-2.965,0.599-4.019,1.669c-1.086,1.07-1.684,2.503-1.684,4.034v14.405   c0,0.068,0,0.387,0.004,0.868c-0.214,0.126-0.418,0.254-0.62,0.384V39.815c0.009,0,0.018,0.003,0.027,0.003h17.184v-9.871H57.684   C57.675,29.946,57.666,29.949,57.657,29.949z M40.786,19.898c0-0.714,0.281-1.396,0.791-1.922c0.488-0.504,1.139-0.781,1.832-0.781   c1.421,0,2.623,1.238,2.623,2.703v10.048h-5.245V19.898z M33.025,36.817v-3.871h13.009v3.871H33.025z M32.058,47.444   c0-1.49,1.212-2.702,2.702-2.702s2.702,1.212,2.702,2.702v14.408c0,1.49-1.212,2.702-2.702,2.702s-2.702-1.212-2.702-2.702v-2.963   c0-0.012,0.003-0.022,0.003-0.034s-0.003-0.022-0.003-0.034V47.444z M22.319,47.444c0-1.49,1.212-2.702,2.702-2.702   c1.49,0,2.703,1.212,2.703,2.702v11.392c0,0.007-0.002,0.013-0.002,0.019s0.002,0.013,0.002,0.019v2.978   c0,1.49-1.212,2.702-2.703,2.702c-1.49,0-2.702-1.212-2.702-2.702V47.444z M58.441,66.185l0.396-0.264   c0.504-0.347,1.046-0.675,1.658-1.003c0.022-0.012,0.04-0.029,0.062-0.041c0.048-0.029,0.094-0.059,0.138-0.093   c0.037-0.028,0.071-0.058,0.105-0.089c0.037-0.034,0.071-0.069,0.104-0.106c0.032-0.036,0.062-0.073,0.09-0.112   c0.029-0.039,0.055-0.08,0.08-0.122c0.024-0.041,0.046-0.082,0.066-0.125c0.021-0.045,0.04-0.09,0.056-0.137   c0.016-0.045,0.029-0.09,0.041-0.137c0.011-0.046,0.021-0.093,0.028-0.141c0.008-0.053,0.012-0.105,0.014-0.158   c0.001-0.026,0.007-0.052,0.007-0.078c-0.012-0.987-0.012-1.621-0.012-1.724V47.45c0-0.722,0.28-1.396,0.806-1.913   c0.501-0.51,1.175-0.79,1.897-0.79c1.49,0,2.703,1.213,2.703,2.703v14.405c0,0.1-0.006,0.198-0.019,0.291   c-0.005,0.036-0.002,0.071-0.005,0.107c-0.003,0.036-0.011,0.069-0.011,0.106l0.004,0.052l0.007,0.095l0.006,0.081   c0.012,0.077,0.017,0.16,0.017,0.242v12.481c0,9.408-7.649,17.063-17.051,17.063H39.379c-9.408,0-17.063-7.654-17.063-17.063v-8.44   c0.805,0.436,1.726,0.684,2.705,0.684c2.063,0,3.869-1.105,4.87-2.75c1.001,1.646,2.806,2.75,4.869,2.75   c3.026,0,5.503-2.372,5.685-5.353c0.21-0.258,0.342-0.583,0.342-0.943V39.817h5.245v24.312c0,0.828,0.671,1.5,1.5,1.5   c0.036,0,0.07-0.008,0.105-0.011c0.039,0.003,0.076,0.012,0.115,0.012c0.829,0,1.5-0.672,1.5-1.5V19.898   c0-0.714,0.283-1.391,0.806-1.913c0.501-0.509,1.174-0.789,1.897-0.789c1.465,0,2.703,1.237,2.703,2.702v44.488   c0,0.296,0.089,0.57,0.237,0.803c-0.22,0.194-0.453,0.379-0.661,0.579C49.698,70.046,47.2,75.814,47.2,82.01   c0,0.828,0.671,1.5,1.5,1.5s1.5-0.672,1.5-1.5c0-5.361,2.163-10.354,6.099-14.067C56.953,67.316,57.672,66.726,58.441,66.185z    M71.868,36.817H57.684c-0.009,0-0.018,0.003-0.027,0.003v-3.876c0.009,0,0.018,0.003,0.027,0.003h14.184V36.817z" style="" fill="#f98250"></path>
        <path d="M79.539,27.805c-0.632,0-1.145,0.478-1.145,1.067v6.403c0,0.589,0.513,1.067,1.145,1.067s1.145-0.478,1.145-1.067v-6.403   C80.684,28.283,80.171,27.805,79.539,27.805z"
              style="" fill="#f98250"></path>
        <path d="M79.539,16.716c-0.632,0-1.145,0.478-1.145,1.067v6.403c0,0.589,0.513,1.067,1.145,1.067s1.145-0.478,1.145-1.067v-6.403   C80.684,17.194,80.171,16.716,79.539,16.716z"
              style="" fill="#f98250"></path>
        <path d="M79.539,4.627c-0.632,0-1.145,0.478-1.145,1.067v6.403c0,0.589,0.513,1.067,1.145,1.067s1.145-0.478,1.145-1.067V5.694   C80.684,5.105,80.171,4.627,79.539,4.627z"
              style="" fill="#f98250"></path></g></svg>